{"accessors" : [{"bufferView" : 0, "byteOffset" : 0, "componentType" : 5123, "count" : 5013, "type" : "SCALAR", "max" : [5012], "min" : [0]}, {"bufferView" : 1, "byteOffset" : 0, "componentType" : 5126, "count" : 5013, "type" : "VEC3", "max" : [38.500335693359375, 132.87933349609375, 36.724483489990234], "min" : [-38.500335693359375, -0.671684741973877, -37.906005859375], "name" : "POSITION"}, {"bufferView" : 1, "byteOffset" : 12, "componentType" : 5126, "count" : 5013, "type" : "VEC3", "max" : [1.0000044107437134, 1.0000044107437134, 1.0000044107437134], "min" : [-1.0000044107437134, -1.0000044107437134, -1.0000044107437134], "name" : "NORMAL"}, {"bufferView" : 1, "byteOffset" : 24, "componentType" : 5126, "count" : 5013, "type" : "VEC2", "max" : [0.9966681003570557, -0.0042058066464960575], "min" : [0.004204493016004562, -0.996354341506958], "name" : "TEXCOORD_0"}, {"bufferView" : 1, "byteOffset" : 32, "componentType" : 5126, "count" : 5013, "type" : "VEC2", "max" : [0.9061623811721802, -0.003968254663050175], "min" : [0.0036101937294006348, -0.9960318207740784], "name" : "TEXCOORD_1"}], "asset" : {"generator" : "Aspose.3D 22.1", "version" : "2.0"}, "buffers" : [{"uri" : "data:application/octet-stream;base64,", "byteLength" : 210556}], "bufferViews" : [{"buffer" : 0, "byteOffset" : 0, "byteLength" : 10028, "target" : 34963}, {"buffer" : 0, "byteOffset" : 10032, "byteLength" : 200520, "byteStride" : 40, "target" : 34962}], "images" : [{"uri" : "D:/Project/Horror/Bake/Trash Bin1/Unity/Trash_bin1_a.tif"}], "materials" : [{"name" : "", "pbrMetallicRoughness" : {"baseColorFactor" : [1, 1, 1, 1], "baseColorTexture" : {"index" : 0, "texCoord" : 0}, "metallicFactor" : 0, "roughnessFactor" : 0}, "emissiveFactor" : [0, 0, 0], "alphaMode" : "OPAQUE", "doubleSided" : false}], "meshes" : [{"primitives" : [{"attributes" : {"POSITION" : 1, "NORMAL" : 2, "TEXCOORD_0" : 3, "TEXCOORD_1" : 4}, "indices" : 0, "material" : 0, "mode" : 4}], "name" : ""}], "nodes" : [{"mesh" : 0, "name" : "polySurface52"}], "samplers" : [{"magFilter" : 9729, "minFilter" : 9729, "wrapS" : 10497, "wrapT" : 10497}], "scene" : 0, "scenes" : [{"nodes" : [0]}], "textures" : [{"sampler" : 0, "source" : 0}]}